<?xml version="1.0" encoding="UTF-8"?>
<svg width="64px" height="53px" viewBox="0 0 64 53" version="1.1" xmlns="http://www.w3.org/2000/svg" xmlns:xlink="http://www.w3.org/1999/xlink">
    <!-- Generator: Sketch 49.3 (51167) - http://www.bohemiancoding.com/sketch -->
    <title>Page 1</title>
    <desc>Created with Sketch.</desc>
    <defs></defs>
    <g id="Symbols" stroke="none" stroke-width="1" fill="none" fill-rule="evenodd">
        <g id="360_onboarding" fill="#ffffff">
            <g id="Page-1">
                <path d="M31.9290811,51.2043243 C14.1318919,51.2043243 1.72972973,46.4752432 1.72972973,42.2304865 L1.72972973,20.9202162 C6.30313514,25.4348108 19.283027,28.0363243 31.9290811,28.0363243 C44.5751351,28.0363243 57.5532973,25.4348108 62.1267027,20.9202162 L62.1267027,42.2304865 C62.1267027,46.4752432 49.7245405,51.2043243 31.9290811,51.2043243 M52.7930811,9.14421622 C52.5318919,9.0732973 52.2516757,9.12345946 52.0354595,9.28778378 C51.8192432,9.45037838 51.692973,9.70464865 51.692973,9.97621622 L51.692973,14.323027 C51.692973,14.8004324 52.0787027,15.1878919 52.5578378,15.1878919 C53.0352432,15.1878919 53.4227027,14.8004324 53.4227027,14.323027 L53.4227027,11.1334054 C58.8972973,12.8354595 62.1267027,15.1204324 62.1267027,17.3327568 C62.1267027,21.5775135 49.7245405,26.3065946 31.9290811,26.3065946 C14.1318919,26.3065946 1.72972973,21.5775135 1.72972973,17.3327568 C1.72972973,15.1204324 4.95913514,12.8354595 10.4337297,11.1334054 L10.4337297,14.323027 C10.4337297,14.8004324 10.8211892,15.1878919 11.2985946,15.1878919 C11.7777297,15.1878919 12.1634595,14.8004324 12.1634595,14.323027 L12.1634595,9.97621622 C12.1634595,9.70464865 12.0371892,9.45037838 11.820973,9.28778378 C11.6064865,9.12172973 11.328,9.07156757 11.0633514,9.14421622 C3.92994595,11.1524324 0,14.0618378 0,17.3327568 L0,42.2304865 C0,48.9297297 16.2352432,52.9340541 31.9290811,52.9340541 C47.6229189,52.9340541 63.8564324,48.9297297 63.8564324,42.2304865 L63.8564324,17.3327568 C63.8564324,14.0601081 59.9282162,11.1524324 52.7930811,9.14421622" id="Fill-1"></path>
                <path d="M52.5574919,1.72972973 C53.4604108,1.72972973 54.1955459,2.46486486 54.1955459,3.36778378 C54.1955459,4.2707027 53.4604108,5.00583784 52.5574919,5.00583784 C51.654573,5.00583784 50.9194378,4.2707027 50.9194378,3.36778378 C50.9194378,2.46486486 51.654573,1.72972973 52.5574919,1.72972973 M52.5574919,6.73556757 C54.4134919,6.73556757 55.9252757,5.22551351 55.9252757,3.36778378 C55.9252757,1.51178378 54.4134919,-3.55271368e-15 52.5574919,-3.55271368e-15 C50.7014919,-3.55271368e-15 49.1897081,1.51178378 49.1897081,3.36778378 C49.1897081,5.22551351 50.7014919,6.73556757 52.5574919,6.73556757" id="Fill-3"></path>
                <path d="M52.8716108,36.8013838 L49.5591784,34.9678703 C49.2460973,34.7948973 48.8517189,34.9073297 48.6770162,35.2204108 C48.5040432,35.5352216 48.6164757,35.9296 48.9312865,36.102573 L50.8166919,37.1473297 C45.4355027,38.4723027 38.8123676,39.2022486 31.929773,39.2022486 C25.0004757,39.2022486 18.3375568,38.4619243 12.9356108,37.1196541 L14.8590703,35.9296 C15.1635027,35.7410595 15.2586378,35.3414919 15.0700973,35.0370595 C14.8815568,34.7308973 14.4819892,34.6392216 14.1775568,34.8260324 L10.9585297,36.8169514 C10.8115027,36.908627 10.7077189,37.0539243 10.6679351,37.2199784 C10.6281514,37.3877622 10.6575568,37.5641946 10.745773,37.7094919 L12.7384216,40.9302486 C12.8612324,41.1274378 13.0739892,41.2364108 13.2902054,41.2364108 C13.407827,41.2364108 13.5254486,41.2052757 13.6309622,41.1395459 C13.9353946,40.9510054 14.0305297,40.5514378 13.8437189,40.2470054 L12.6986378,38.3979243 C18.1870703,39.7540324 24.9330162,40.4995459 31.929773,40.4995459 C38.9715027,40.4995459 45.7555027,39.7436541 51.2595027,38.3719784 L50.1559351,40.3663568 C49.9812324,40.6794378 50.0953946,41.0738162 50.4084757,41.2485189 C50.5088,41.3038703 50.6160432,41.3298162 50.7232865,41.3298162 C50.9516108,41.3298162 51.1730162,41.2087351 51.2906378,40.9942486 L53.1241514,37.6835459 C53.2071784,37.5330595 53.2279351,37.3548973 53.1812324,37.190573 C53.1328,37.0245189 53.0220973,36.8844108 52.8716108,36.8013838" id="Fill-5"></path>
                <path d="M18.9915676,19.4425081 C22.0497297,19.4425081 24.1029189,17.7542919 24.1029189,15.2427243 C24.1029189,13.3884541 22.816,12.2485622 21.5792432,11.8161297 C22.8315676,11.3283459 23.8953514,10.2507243 23.8953514,8.62477838 C23.8953514,6.28791351 21.9234595,4.71558919 18.9915676,4.71558919 C17.0144865,4.71558919 15.2761081,5.50261622 14.0947027,6.93137297 C14.0272432,7.01267027 14.028973,7.13202162 14.0998919,7.21331892 L15.0547027,8.29094054 C15.0944865,8.33764324 15.1515676,8.36358919 15.2138378,8.36358919 L15.2155676,8.36358919 C15.2778378,8.36358919 15.3349189,8.33937297 15.3747027,8.2944 C16.4038919,7.18045405 17.4815135,6.68402162 18.867027,6.68402162 C20.2975135,6.68402162 21.7418378,7.34823784 21.7418378,8.83234595 C21.7418378,10.7506162 19.4464865,10.899373 18.7407568,10.899373 C18.2097297,10.899373 17.548973,10.899373 17.331027,10.8786162 C17.2774054,10.873427 17.2099459,10.8941838 17.164973,10.9339676 C17.12,10.9737514 17.0940541,11.0325622 17.0940541,11.0931027 L17.0940541,12.6706162 C17.0940541,12.7311568 17.12,12.7899676 17.164973,12.8314811 C17.2116757,12.8712649 17.2756757,12.8954811 17.3327568,12.8851027 C17.5282162,12.8660757 18.2010811,12.8660757 18.7407568,12.8660757 C20.2144865,12.8660757 21.9701622,13.2535351 21.9701622,15.097427 C21.9701622,16.5867243 20.8406486,17.4740757 18.9500541,17.4740757 C17.4572973,17.4740757 16.0804324,16.8236973 15.264,15.7356973 C15.2259459,15.6855351 15.1671351,15.6544 15.1031351,15.6492108 C15.0512432,15.6509405 14.9785946,15.6716973 14.9336216,15.7166703 L13.9165405,16.7960216 C13.8473514,16.8704 13.8387027,16.9828324 13.8957838,17.0658595 C14.9145946,18.553427 16.8172973,19.4425081 18.9915676,19.4425081" id="Fill-7"></path>
                <path d="M28.0996324,13.9061622 C28.8555243,12.7420541 30.1199568,11.9948108 31.3411459,11.9948108 C33.2057946,11.9948108 34.3197405,13.0309189 34.3197405,14.7658378 C34.3197405,16.0787027 33.2819027,17.4745946 31.3619027,17.4745946 C28.7257946,17.4745946 28.2016865,14.835027 28.0996324,13.9061622 M31.424173,19.443027 C34.752173,19.443027 36.4940108,17.0577297 36.4940108,14.7035676 C36.4940108,11.8875676 34.6328216,10.0678919 31.7545514,10.0678919 C30.1268757,10.0678919 28.7724973,10.995027 28.0304432,11.8304865 C28.0529297,9.25664865 29.1928216,6.68454054 31.7147676,6.68454054 C33.1798486,6.68454054 33.9253622,7.32454054 34.5169297,8.01816216 C34.5584432,8.06832432 34.6310919,8.08562162 34.6933622,8.09427027 C34.7608216,8.09081081 34.8230919,8.05621622 34.8594162,7.99913514 L35.7312,6.71394595 C35.7865514,6.63091892 35.7796324,6.52367568 35.7139027,6.4492973 C34.7106595,5.29902703 33.3649297,4.71610811 31.7147676,4.71610811 C27.4042811,4.71610811 25.8752,8.68756757 25.8752,12.0899459 C25.8752,16.6927568 27.9491459,19.443027 31.424173,19.443027" id="Fill-9"></path>
                <path d="M40.3378162,12.0691892 C40.3378162,10.8064865 40.5765189,6.68454054 43.6485189,6.68454054 C46.7205189,6.68454054 46.9592216,10.8064865 46.9592216,12.0691892 C46.9592216,13.3370811 46.7205189,17.4745946 43.6485189,17.4745946 C40.5765189,17.4745946 40.3378162,13.3370811 40.3378162,12.0691892 M43.6485189,19.443027 C47.4521946,19.443027 49.1559784,15.7396757 49.1559784,12.0691892 C49.1559784,8.40908108 47.4521946,4.71610811 43.6485189,4.71610811 C39.8448432,4.71610811 38.1410595,8.40908108 38.1410595,12.0691892 C38.1410595,15.7396757 39.8448432,19.443027 43.6485189,19.443027" id="Fill-11"></path>
            </g>
        </g>
    </g>
</svg>