<?xml version="1.0" encoding="UTF-8"?>
<svg width="64px" height="64px" viewBox="0 0 64 64" version="1.1" xmlns="http://www.w3.org/2000/svg" xmlns:xlink="http://www.w3.org/1999/xlink">
    <!-- Generator: Sketch 49.3 (51167) - http://www.bohemiancoding.com/sketch -->
    <title>menu/captions/off</title>
    <desc>Created with Sketch.</desc>
    <defs>
        <polygon id="path-1" points="0 8.88888889e-05 63.9997333 8.88888889e-05 63.9997333 64 0 64"></polygon>
    </defs>
    <g id="menu/captions/off" stroke="none" stroke-width="1" fill="none" fill-rule="evenodd">
        <g id="Page-1">
            <g id="Group-3">
                <mask id="mask-2" fill="white">
                    <use xlink:href="#path-1"></use>
                </mask>
                <g id="Clip-2"></g>
                <path d="M63.9997333,32.0000889 C63.9997333,49.6729778 49.6735111,64.0000889 31.9997333,64.0000889 C14.3268444,64.0000889 -0.000266666667,49.6729778 -0.000266666667,32.0000889 C-0.000266666667,14.3272 14.3268444,8.88888889e-05 31.9997333,8.88888889e-05 C49.6735111,8.88888889e-05 63.9997333,14.3272 63.9997333,32.0000889 Z" id="Fill-1" fill="#FFFFFF" mask="url(#mask-2)"></path>
            </g>
            <path d="M55.1698667,23.1112 L31.9103111,23.1112 L36.3547556,27.5556444 L42.9787556,27.5556444 C43.7147556,27.5556444 44.3120889,28.1520889 44.3120889,28.8889778 C44.3120889,29.6258667 43.7147556,30.2223111 42.9787556,30.2223111 L39.0214222,30.2223111 L42.5769778,33.7778667 L51.1112,33.7778667 C51.8472,33.7778667 52.4445333,34.3743111 52.4445333,35.1112 C52.4445333,35.8480889 51.8472,36.4445333 51.1112,36.4445333 L45.2436444,36.4445333 L49.6880889,40.8889778 L55.1698667,40.8889778 C56.1192,40.8889778 56.8889778,40.1192 56.8889778,39.1698667 L56.8889778,24.8303111 C56.8889778,23.8809778 56.1192,23.1112 55.1698667,23.1112" id="Fill-4" fill="#B2B2B2"></path>
            <path d="M12.8886222,36.4445333 C12.1526222,36.4445333 11.5552889,35.8480889 11.5552889,35.1112 C11.5552889,34.3743111 12.1526222,33.7778667 12.8886222,33.7778667 L24.9792889,33.7778667 L21.4237333,30.2223111 L12.8886222,30.2223111 C12.1526222,30.2223111 11.5552889,29.6258667 11.5552889,28.8889778 C11.5552889,28.1520889 12.1526222,27.5556444 12.8886222,27.5556444 L18.7570667,27.5556444 L14.3117333,23.1112 L8.82995556,23.1112 C7.88062222,23.1112 7.11084444,23.8809778 7.11084444,24.8303111 L7.11084444,39.1698667 C7.11084444,40.1192 7.88062222,40.8889778 8.82995556,40.8889778 L32.0904,40.8889778 L27.6459556,36.4445333 L12.8886222,36.4445333 Z" id="Fill-6" fill="#B2B2B2"></path>
            <path d="M51.4849778,46.4571556 L17.5418667,12.5149333 C16.8485333,11.8207111 15.9392,11.4740444 15.0280889,11.4740444 C14.1187556,11.4740444 13.2085333,11.8207111 12.5143111,12.5149333 C11.1258667,13.9042667 11.1258667,16.1558222 12.5143111,17.5433778 L46.4574222,51.4847111 C47.1516444,52.1789333 48.0609778,52.5264889 48.9712,52.5264889 C49.8814222,52.5264889 50.7916444,52.1789333 51.4849778,51.4847111 C52.1792,50.7904889 52.5267556,49.8811556 52.5267556,48.9709333 C52.5267556,48.0616 52.1792,47.1504889 51.4849778,46.4571556" id="Fill-8" fill="#C6579A"></path>
        </g>
    </g>
</svg>