<?xml version="1.0" encoding="UTF-8"?>
<svg width="62px" height="62px" viewBox="0 0 62 62" version="1.1" xmlns="http://www.w3.org/2000/svg" xmlns:xlink="http://www.w3.org/1999/xlink">
    <!-- Generator: Sketch 49.3 (51167) - http://www.bohemiancoding.com/sketch -->
    <title>menu_vr</title>
    <desc>Created with Sketch.</desc>
    <defs>
        <polygon id="path-1" points="0 0 61.9998278 0 61.9998278 62 0 62"></polygon>
    </defs>
    <g id="menu_vr" stroke="none" stroke-width="1" fill="none" fill-rule="evenodd">
        <g id="Page-1">
            <g id="Group-3">
                <mask id="mask-2" fill="white">
                    <use xlink:href="#path-1"></use>
                </mask>
                <g id="Clip-2"></g>
                <path d="M30.9998278,62 C13.8792167,62 -0.000172222222,48.1206111 -0.000172222222,31 C-0.000172222222,13.8793889 13.8792167,0 30.9998278,0 C48.1213,0 61.9998278,13.8793889 61.9998278,31 C61.9998278,48.1206111 48.1213,62 30.9998278,62" id="Fill-1" fill="#FFFFFF" mask="url(#mask-2)"></path>
            </g>
            <path d="M39.9700222,35.2778278 C37.6079944,35.2778278 35.6920222,33.3627167 35.6920222,30.9998278 C35.6920222,28.6378 37.6079944,26.7218278 39.9700222,26.7218278 C42.3329111,26.7218278 44.2488833,28.6378 44.2488833,30.9998278 C44.2488833,33.3627167 42.3329111,35.2778278 39.9700222,35.2778278 M22.0003556,35.2778278 C19.6383278,35.2778278 17.7223556,33.3627167 17.7223556,30.9998278 C17.7223556,28.6378 19.6383278,26.7218278 22.0003556,26.7218278 C24.3632444,26.7218278 26.2783556,28.6378 26.2783556,30.9998278 C26.2783556,33.3627167 24.3632444,35.2778278 22.0003556,35.2778278 M48.3624111,18.6936889 L13.6381056,18.6936889 C12.3662444,18.6936889 11.3354944,19.7244389 11.3354944,20.9954389 L11.3354944,41.34005 C11.3354944,42.4259111 12.2164111,43.3068278 13.3014111,43.3068278 L22.9630778,43.3068278 L23.3815778,43.3059667 C24.2581889,43.3059667 25.0090778,42.7677722 25.3216611,42.0039667 L27.3969389,37.0801333 L28.2106889,35.1495222 C28.3588,34.8154111 28.5749389,34.5011056 28.8487722,34.2281333 C30.0371056,33.0398 31.9634111,33.0398 33.1517444,34.2281333 C33.4238556,34.5002444 33.6391333,34.8111056 33.7863833,35.1443556 C33.7889667,35.1495222 34.6035778,37.0801333 34.6035778,37.0801333 L36.6762722,42.0039667 C36.9888556,42.7686333 37.7397444,43.3068278 38.6172167,43.3068278 L48.6982444,43.3068278 C49.7841056,43.3068278 50.6641611,42.4259111 50.6641611,41.34005 L50.6641611,20.9954389 C50.6641611,19.7244389 49.6342722,18.6936889 48.3624111,18.6936889" id="Fill-4" fill="#CA5699"></path>
            <path d="M22.0001833,26.7222583 C19.6381556,26.7222583 17.7221833,28.6373694 17.7221833,31.0002583 C17.7221833,33.3622861 19.6381556,35.2782583 22.0001833,35.2782583 C24.3630722,35.2782583 26.2781833,33.3622861 26.2781833,31.0002583 C26.2781833,28.6373694 24.3630722,26.7222583 22.0001833,26.7222583" id="Fill-6" fill="#FFFFFF"></path>
            <path d="M39.9700222,26.7222583 C37.6079944,26.7222583 35.6920222,28.6373694 35.6920222,31.0002583 C35.6920222,33.3622861 37.6079944,35.2782583 39.9700222,35.2782583 C42.3329111,35.2782583 44.2488833,33.3622861 44.2488833,31.0002583 C44.2488833,28.6373694 42.3329111,26.7222583 39.9700222,26.7222583" id="Fill-8" fill="#FFFFFF"></path>
        </g>
    </g>
</svg>