<?xml version="1.0" encoding="UTF-8"?>
<svg width="64px" height="64px" viewBox="0 0 64 64" version="1.1" xmlns="http://www.w3.org/2000/svg" xmlns:xlink="http://www.w3.org/1999/xlink">
    <!-- Generator: Sketch 49.3 (51167) - http://www.bohemiancoding.com/sketch -->
    <title>menu/headset</title>
    <desc>Created with Sketch.</desc>
    <defs>
        <polygon id="path-1" points="0.000177777778 0 64 0 64 63.9998222 0.000177777778 63.9998222"></polygon>
    </defs>
    <g id="menu/headset" stroke="none" stroke-width="1" fill="none" fill-rule="evenodd">
        <g id="HEADSET">
            <g id="Group-3">
                <mask id="mask-2" fill="white">
                    <use xlink:href="#path-1"></use>
                </mask>
                <g id="Clip-2"></g>
                <path d="M32.0001778,63.9998222 C14.3272889,63.9998222 0.000177777778,49.6727111 0.000177777778,31.9998222 C0.000177777778,14.3269333 14.3272889,-0.000177777778 32.0001778,-0.000177777778 C49.6730667,-0.000177777778 64.0001778,14.3269333 64.0001778,31.9998222 C64.0001778,49.6727111 49.6730667,63.9998222 32.0001778,63.9998222" id="Fill-1" fill="#FFFFFF" mask="url(#mask-2)"></path>
            </g>
            <path d="M21.9302222,46.4138667 C24.548,49.7863111 28.0973333,51.8609778 32.0004444,51.8609778 C35.8973333,51.8609778 39.4431111,49.7916444 42.0591111,46.4272 L45.1044444,46.7098667 C41.9417778,51.4912 37.2404444,54.5276444 32.0004444,54.5276444 C26.7595556,54.5276444 22.0582222,51.4912 18.8955556,46.7098667 L21.9302222,46.4138667 Z M18.54,18.4067556 C21.7,13.3054222 26.5595556,10.0334222 32.0004444,10.0334222 C37.4377778,10.0334222 42.2955556,13.3027556 45.4555556,18.3996444 L42.0448889,18.1152 C39.4297778,14.7614222 35.8911111,12.7000889 32.0004444,12.7000889 C28.1008889,12.7000889 24.5551111,14.7703111 21.9382222,18.1374222 L18.54,18.4067556 Z" id="Fill-4" fill="#C6579A"></path>
            <path d="M26.9554667,26.8747556 L18.5572444,35.2729778 C18.3839111,35.4463111 18.1563556,35.5334222 17.9288,35.5334222 C17.7012444,35.5334222 17.4736889,35.4463111 17.3003556,35.2729778 C16.9536889,34.9254222 16.9536889,34.3627556 17.3003556,34.0160889 L25.6985778,25.6178667 C26.0461333,25.2703111 26.6079111,25.2703111 26.9554667,25.6178667 C27.3030222,25.9654222 27.3030222,26.5272 26.9554667,26.8747556 M15.3616889,30.4907556 C15.1341333,30.4907556 14.9065778,30.4045333 14.7332444,30.2303111 C14.3856889,29.8836444 14.3856889,29.3209778 14.7332444,28.9734222 L20.6568,23.0507556 C21.0034667,22.7032 21.5661333,22.7032 21.9136889,23.0507556 C22.2603556,23.3974222 22.2603556,23.9600889 21.9136889,24.3076444 L15.9901333,30.2303111 C15.8168,30.4045333 15.5892444,30.4907556 15.3616889,30.4907556 M52.4719111,36.5885333 L50.8923556,21.7672 L50.8319111,21.6854222 C42.2550222,20.5734222 33.4185778,20.2267556 24.7305778,20.6525333 C20.8719111,20.8436444 16.9803556,21.1903111 13.1634667,21.6854222 C12.7448,25.6169778 11.5376889,36.5014222 11.5261333,36.6107556 C11.3385778,38.5974222 12.0399111,40.5787556 13.4505778,42.0232 C14.7359111,43.3396444 16.4541333,44.0712 18.2923556,44.0863111 L26.1216889,43.3512 C26.6968,40.5716444 29.1412444,38.5725333 31.9999111,38.5725333 C34.8594667,38.5725333 37.3030222,40.5716444 37.8790222,43.3512 L45.7074667,44.0863111 C47.6381333,44.0703111 49.4150222,43.2765333 50.7163556,41.8463111 C52.0319111,40.4009778 52.6550222,38.5343111 52.4719111,36.5885333" id="Fill-6" fill="#C6579A"></path>
        </g>
    </g>
</svg>