<?xml version="1.0" encoding="UTF-8"?>
<svg width="64px" height="64px" viewBox="0 0 64 64" version="1.1" xmlns="http://www.w3.org/2000/svg" xmlns:xlink="http://www.w3.org/1999/xlink">
    <!-- Generator: Sketch 49.3 (51167) - http://www.bohemiancoding.com/sketch -->
    <title>menu/sound/on</title>
    <desc>Created with Sketch.</desc>
    <defs>
        <polygon id="path-1" points="0 0.000177777778 63.9998222 0.000177777778 63.9998222 64 0 64"></polygon>
    </defs>
    <g id="menu/sound/on" stroke="none" stroke-width="1" fill="none" fill-rule="evenodd">
        <g id="SOUND">
            <g id="Group-3">
                <mask id="mask-2" fill="white">
                    <use xlink:href="#path-1"></use>
                </mask>
                <g id="Clip-2"></g>
                <path d="M31.9998222,0.000177777778 C49.6727111,0.000177777778 63.9998222,14.3264 63.9998222,32.0001778 C63.9998222,49.6730667 49.6727111,64.0001778 31.9998222,64.0001778 C14.3269333,64.0001778 -0.000177777778,49.6730667 -0.000177777778,32.0001778 C-0.000177777778,14.3264 14.3269333,0.000177777778 31.9998222,0.000177777778" id="Fill-1" fill="#FFFFFF" mask="url(#mask-2)"></path>
            </g>
            <path d="M42.4264889,20.8743111 L42.3127111,20.6725333 C42.0851556,20.2760889 41.6940444,20.0138667 41.2398222,19.9534222 C40.7856,19.8885333 40.3340444,20.0432 40.0069333,20.3703111 C39.5429333,20.8352 39.4487111,21.5614222 39.7784889,22.1374222 C41.4904889,25.1294222 42.3953778,28.5400889 42.3953778,32.0014222 C42.3953778,35.4636444 41.4896,38.8752 39.7767111,41.8680889 C39.4469333,42.4449778 39.5411556,43.1720889 40.0051556,43.6352 C40.2824889,43.9134222 40.6496,44.0645333 41.0353778,44.0645333 C41.1011556,44.0645333 41.1669333,44.0600889 41.2327111,44.0503111 C41.6913778,43.9898667 42.0869333,43.7232 42.3171556,43.3214222 C44.2833778,39.8867556 45.3224889,35.9720889 45.3224889,32.0014222 C45.3224889,28.1080889 44.3216,24.2609778 42.4264889,20.8743111" id="Fill-4" fill="#C6579A"></path>
            <path d="M47.0410667,17.3431111 C46.8055111,16.9733333 46.4188444,16.7333333 45.9797333,16.6862222 C45.5326222,16.6337778 45.0970667,16.7902222 44.7779556,17.1093333 C44.2899556,17.5973333 44.2108444,18.3475556 44.5841778,18.9333333 C47.0712889,22.8408889 48.3859556,27.36 48.3859556,32.0008889 C48.3859556,36.6444444 47.0704,41.1644444 44.5815111,45.072 C44.2090667,45.6586667 44.2890667,46.4088889 44.7761778,46.896 L44.7788444,46.8986667 C45.0561778,47.1768889 45.4277333,47.3288889 45.8152889,47.3288889 C45.8686222,47.3288889 45.9228444,47.3253333 45.9770667,47.3208889 C46.4152889,47.2728889 46.8019556,47.0328889 47.0392889,46.6631111 C49.8348444,42.2808889 51.3130667,37.2115556 51.3130667,32.0008889 C51.3130667,26.7928889 49.8357333,21.7235556 47.0410667,17.3431111" id="Fill-6" fill="#C6579A"></path>
            <path d="M32.7245333,14.9784 L21.4463111,26.2601778 C21.3503111,26.3561778 21.2169778,26.4112889 21.0809778,26.4112889 L13.9405333,26.4112889 C12.3689778,26.4112889 10.8614222,27.0779556 9.80364444,28.2415111 C8.73075556,29.4219556 8.2232,30.9526222 8.37608889,32.5517333 C8.64542222,35.3784 11.1912,37.5935111 14.1707556,37.5935111 L21.0809778,37.5935111 C21.2160889,37.5935111 21.3503111,37.6486222 21.4463111,37.7446222 L32.7245333,49.0352889 C32.8507556,49.1615111 33.0134222,49.2281778 33.1823111,49.2281778 C33.2667556,49.2281778 33.3529778,49.2112889 33.4356444,49.1766222 C33.6809778,49.0761778 33.8392,48.8388444 33.8392,48.5730667 L33.8392,15.4406222 C33.8392,15.1748444 33.6809778,14.9375111 33.4356444,14.8370667 C33.1876444,14.7339556 32.9138667,14.7872889 32.7245333,14.9784 Z" id="Fill-8" fill="#C6579A"></path>
        </g>
    </g>
</svg>