<?xml version="1.0" encoding="UTF-8"?>
<svg width="64px" height="64px" viewBox="0 0 64 64" version="1.1" xmlns="http://www.w3.org/2000/svg" xmlns:xlink="http://www.w3.org/1999/xlink">
    <!-- Generator: Sketch 49.3 (51167) - http://www.bohemiancoding.com/sketch -->
    <title>menu/help</title>
    <desc>Created with Sketch.</desc>
    <defs>
        <polygon id="path-1" points="0 0.000177777778 63.9999111 0.000177777778 63.9999111 64 0 64"></polygon>
    </defs>
    <g id="menu/help" stroke="none" stroke-width="1" fill="none" fill-rule="evenodd">
        <g id="HELP">
            <g id="Group-3">
                <mask id="mask-2" fill="white">
                    <use xlink:href="#path-1"></use>
                </mask>
                <g id="Clip-2"></g>
                <path d="M31.9999111,0.000177777778 C49.6736889,0.000177777778 63.9999111,14.3272889 63.9999111,32.0001778 C63.9999111,49.6730667 49.6736889,64.0001778 31.9999111,64.0001778 C14.3270222,64.0001778 -8.88888889e-05,49.6730667 -8.88888889e-05,32.0001778 C-8.88888889e-05,14.3272889 14.3270222,0.000177777778 31.9999111,0.000177777778" id="Fill-1" fill="#FFFFFF" mask="url(#mask-2)"></path>
            </g>
            <path d="M35.6656889,51.6191111 C35.6656889,53.7933333 33.9030222,55.556 31.7288,55.556 C29.5545778,55.556 27.7928,53.7933333 27.7928,51.6191111 C27.7928,49.4448889 29.5545778,47.6822222 31.7288,47.6822222 C33.9030222,47.6822222 35.6656889,49.4448889 35.6656889,51.6191111" id="Fill-4" fill="#C6579A"></path>
            <path d="M35.2839902,44.1890647 L28.1731271,44.1890647 L28.1731271,31.5548386 L31.4467907,31.5548386 C35.7026423,31.5548386 39.4251791,28.3505059 39.7096137,24.1035429 C40.0216028,19.4459275 36.3212874,15.5553965 31.7285586,15.5553965 C28.1989039,15.5553965 25.196342,17.8522053 24.1377122,21.0289834 C23.6443961,22.5071541 22.3333307,23.5551175 20.7751628,23.5551175 L20.6631667,23.5551175 C18.2828053,23.5551175 16.6055304,21.2334207 17.3299496,18.9668331 C19.441876,12.3546192 25.9900921,7.70767014 33.4582761,8.54141885 C40.3664797,9.3129475 45.9538404,14.8887531 46.7395908,21.7951789 C47.6328929,29.6589047 42.4464071,36.5093325 35.2839902,38.2434942 L35.2839902,44.1890647 Z" id="Fill-6" fill="#C6579A"></path>
        </g>
    </g>
</svg>