<?xml version="1.0" encoding="UTF-8"?>
<svg width="64px" height="64px" viewBox="0 0 64 64" version="1.1" xmlns="http://www.w3.org/2000/svg" xmlns:xlink="http://www.w3.org/1999/xlink">
    <!-- Generator: Sketch 49.3 (51167) - http://www.bohemiancoding.com/sketch -->
    <title>menu/sound/off</title>
    <desc>Created with Sketch.</desc>
    <defs>
        <polygon id="path-1" points="0 0.000177777778 64 0.000177777778 64 64 0 64"></polygon>
    </defs>
    <g id="menu/sound/off" stroke="none" stroke-width="1" fill="none" fill-rule="evenodd">
        <g id="Page-1">
            <g id="Group-3">
                <mask id="mask-2" fill="white">
                    <use xlink:href="#path-1"></use>
                </mask>
                <g id="Clip-2"></g>
                <path d="M32,0.000177777778 C49.6728889,0.000177777778 64,14.3264 64,32.0001778 C64,49.6730667 49.6728889,64.0001778 32,64.0001778 C14.3271111,64.0001778 0,49.6730667 0,32.0001778 C0,14.3264 14.3271111,0.000177777778 32,0.000177777778" id="Fill-1" fill="#FFFFFF" mask="url(#mask-2)"></path>
            </g>
            <path d="M45.3224889,32.0010667 C45.3224889,28.1068444 44.3216,24.2597333 42.4264889,20.8739556 L42.3127111,20.6739556 C42.0860444,20.2766222 41.6949333,20.0144 41.2407111,19.9530667 C40.7820444,19.8890667 40.3340444,20.0437333 40.0069333,20.3708444 C39.5438222,20.8348444 39.4496,21.5619556 39.7784889,22.1370667 C41.4904889,25.1308444 42.3953778,28.5406222 42.3953778,32.0010667 C42.3953778,32.5130667 42.3696,33.0224 42.3304889,33.5317333 L44.9367111,36.1370667 C45.1873778,34.7779556 45.3224889,33.3930667 45.3224889,32.0010667" id="Fill-4" fill-opacity="0.3" fill="#000000"></path>
            <path d="M51.3129778,32.0010667 C51.3129778,26.7930667 49.8356444,21.7228444 47.0409778,17.3432889 C46.8054222,16.9735111 46.4178667,16.7335111 45.9796444,16.6864 C45.5325333,16.6366222 45.0969778,16.7904 44.7787556,17.1095111 C44.2907556,17.5966222 44.2107556,18.3468444 44.5840889,18.9335111 C47.0712,22.8401778 48.3858667,27.3584 48.3858667,32.0010667 C48.3858667,34.2686222 48.0667556,36.5050667 47.4560889,38.6570667 L49.7814222,40.9824 C50.7832,38.1121778 51.3129778,35.0837333 51.3129778,32.0010667" id="Fill-6" fill-opacity="0.3" fill="#000000"></path>
            <path d="M33.8394667,15.4402667 C33.8394667,15.1709333 33.6848,14.9398222 33.4359111,14.8367111 C33.1896889,14.7344889 32.9150222,14.7878222 32.7239111,14.9780444 L28.2510222,19.4527111 L33.8394667,25.0411556 L33.8394667,15.4402667 Z" id="Fill-8" fill-opacity="0.3" fill="#000000"></path>
            <path d="M13.9409778,26.4107556 C12.3694222,26.4107556 10.8609778,27.0783111 9.8032,28.2418667 C8.73031111,29.4223111 8.22364444,30.9520889 8.37564444,32.5512 C8.64586667,35.3787556 11.1916444,37.5938667 14.1712,37.5938667 L21.0805333,37.5929778 C21.2165333,37.5929778 21.3498667,37.6489778 21.4467556,37.7449778 L32.7240889,49.0347556 C32.8503111,49.1618667 33.0138667,49.2285333 33.1818667,49.2285333 C33.2663111,49.2285333 33.3525333,49.2107556 33.4360889,49.1760889 C33.6814222,49.0756444 33.8396444,48.8383111 33.8396444,48.5734222 L33.8396444,42.6383111 L17.6112,26.4107556 L13.9409778,26.4107556 Z" id="Fill-10" fill-opacity="0.3" fill="#000000"></path>
            <path d="M52.5269333,48.9706667 C52.5269333,48.0613333 52.1793778,47.1502222 51.4851556,46.4568889 L48.6869333,43.6577778 L46.4691556,41.4408889 L44.1722667,39.144 L41.8051556,36.7768889 L33.8398222,28.8115556 L26.3660444,21.3386667 L17.5429333,12.5146667 C16.8487111,11.8204444 15.9384889,11.4728889 15.0282667,11.4728889 C14.1189333,11.4728889 13.2087111,11.8204444 12.5144889,12.5146667 C11.1260444,13.904 11.1260444,16.1555556 12.5144889,17.5431111 L21.3171556,26.3457778 L33.8398222,38.8675556 L46.4576,51.4844444 C47.1518222,52.1786667 48.0611556,52.5262222 48.9713778,52.5262222 C49.8807111,52.5262222 50.7909333,52.1786667 51.4851556,51.4844444 C52.1793778,50.7902222 52.5269333,49.88 52.5269333,48.9706667" id="Fill-12" fill="#C6579A"></path>
        </g>
    </g>
</svg>