<?xml version="1.0" encoding="UTF-8"?>
<svg width="64px" height="64px" viewBox="0 0 64 64" version="1.1" xmlns="http://www.w3.org/2000/svg" xmlns:xlink="http://www.w3.org/1999/xlink">
    <!-- Generator: Sketch 49.3 (51167) - http://www.bohemiancoding.com/sketch -->
    <title>MAP</title>
    <desc>Created with Sketch.</desc>
    <defs>
        <polygon id="path-1" points="0 0 64 0 64 63.9998222 0 63.9998222"></polygon>
    </defs>
    <g id="Symbols" stroke="none" stroke-width="1" fill="none" fill-rule="evenodd">
        <g id="Map">
            <g id="MAP">
                <g id="Group-3">
                    <mask id="mask-2" fill="white">
                        <use xlink:href="#path-1"></use>
                    </mask>
                    <g id="Clip-2"></g>
                    <path d="M32,63.9998222 C14.3271111,63.9998222 0,49.6727111 0,31.9998222 C0,14.3269333 14.3271111,-0.000177777778 32,-0.000177777778 C49.6728889,-0.000177777778 64,14.3269333 64,31.9998222 C64,49.6727111 49.6728889,63.9998222 32,63.9998222" id="Fill-1" fill="#FFFFFF" mask="url(#mask-2)"></path>
                </g>
                <path d="M32,52.1660444 C24.0133333,52.1660444 17.7573333,48.0096 17.7573333,42.7029333 C17.7573333,38.9616 20.8986667,35.6718222 25.9564444,34.1180444 L26.7395556,36.6673778 C22.9031111,37.8460444 20.424,40.2149333 20.424,42.7029333 C20.424,46.3873778 25.7253333,49.4993778 32,49.4993778 C38.2746667,49.4993778 43.576,46.3873778 43.576,42.7029333 C43.576,40.2638222 41.1662222,37.9162667 37.4355556,36.7216 L38.248,34.1820444 C43.1795556,35.7607111 46.2426667,39.0256 46.2426667,42.7029333 C46.2426667,48.0096 39.9866667,52.1660444 32,52.1660444" id="Fill-4" fill="#CA5699"></path>
                <path d="M32.072,22.9224889 C29.5386667,22.9429333 27.4684444,20.9064889 27.4471111,18.3731556 C27.4266667,15.8407111 29.4631111,13.7704889 31.9964444,13.7491556 C34.5297778,13.7287111 36.6,15.7651556 36.6204444,18.2976 C36.6417778,20.8309333 34.6053333,22.9020444 32.072,22.9224889 M34.6871111,11.4318222 C33.8328889,11.1224889 32.9102222,10.9571556 31.9493333,10.9642667 C30.7457778,10.9740444 29.6088889,11.2549333 28.5937778,11.7473778 C25.2373333,13.3784889 23.7253333,17.3589333 24.8026667,20.9331556 L31.7013333,43.8193778 C31.8497778,44.3127111 32.552,44.3082667 32.6933333,43.8113778 L39.2435556,20.8531556 C40.3395556,17.0113778 38.4426667,12.7953778 34.6871111,11.4318222" id="Fill-6" fill="#CA5699"></path>
            </g>
        </g>
    </g>
</svg>