<?xml version="1.0" encoding="UTF-8"?>
<svg width="64px" height="64px" viewBox="0 0 64 64" version="1.1" xmlns="http://www.w3.org/2000/svg" xmlns:xlink="http://www.w3.org/1999/xlink">
    <!-- Generator: Sketch 49.3 (51167) - http://www.bohemiancoding.com/sketch -->
    <title>menu/exit</title>
    <desc>Created with Sketch.</desc>
    <defs>
        <polygon id="path-1" points="8.88888887e-05 8.88888889e-05 64 8.88888889e-05 64 64 8.88888887e-05 64"></polygon>
    </defs>
    <g id="menu/exit" stroke="none" stroke-width="1" fill="none" fill-rule="evenodd">
        <g id="Page-1">
            <g id="Group-3">
                <mask id="mask-2" fill="white">
                    <use xlink:href="#path-1"></use>
                </mask>
                <g id="Clip-2"></g>
            </g>
            <path d="M42.6293333,14.9566222 L32,25.5859556 L21.3706667,14.9566222 C19.5991111,13.1850667 16.728,13.1850667 14.9564444,14.9566222 C13.1857778,16.7281778 13.1857778,19.5992889 14.9564444,21.3708444 L25.5857778,32.0001778 L14.9564444,42.6295111 C13.1857778,44.4001778 13.1857778,47.2721778 14.9564444,49.0437333 C16.728,50.8144 19.5991111,50.8144 21.3706667,49.0437333 L32,38.4144 L42.6293333,49.0437333 C44.4,50.8144 47.272,50.8144 49.0435556,49.0437333 C50.8142222,47.2721778 50.8142222,44.4001778 49.0435556,42.6295111 L38.4142222,32.0001778 L49.0435556,21.3708444 C50.8142222,19.5992889 50.8142222,16.7281778 49.0435556,14.9566222 C47.272,13.1850667 44.4,13.1850667 42.6293333,14.9566222 Z" id="Fill-4" fill="#C6579A"></path>
        </g>
    </g>
</svg>