<?xml version="1.0" encoding="UTF-8"?>
<svg width="64px" height="64px" viewBox="0 0 64 64" version="1.1" xmlns="http://www.w3.org/2000/svg" xmlns:xlink="http://www.w3.org/1999/xlink">
    <!-- Generator: Sketch 49.3 (51167) - http://www.bohemiancoding.com/sketch -->
    <title>menu/captions/on</title>
    <desc>Created with Sketch.</desc>
    <defs>
        <polygon id="path-1" points="0 0 63.9997333 0 63.9997333 64 0 64"></polygon>
    </defs>
    <g id="menu/captions/on" stroke="none" stroke-width="1" fill="none" fill-rule="evenodd">
        <g id="Page-1">
            <g id="Group-3">
                <mask id="mask-2" fill="white">
                    <use xlink:href="#path-1"></use>
                </mask>
                <g id="Clip-2"></g>
                <path d="M31.9997333,0 C49.6735111,0 63.9997333,14.3271111 63.9997333,32 C63.9997333,49.6728889 49.6735111,64 31.9997333,64 C14.3268444,64 -0.000266666667,49.6728889 -0.000266666667,32 C-0.000266666667,14.3271111 14.3268444,0 31.9997333,0" id="Fill-1" fill="#FFFFFF" mask="url(#mask-2)"></path>
            </g>
            <path d="M51.1108444,36.4444444 L12.8886222,36.4444444 C12.1526222,36.4444444 11.5552889,35.848 11.5552889,35.1111111 C11.5552889,34.3742222 12.1526222,33.7777778 12.8886222,33.7777778 L51.1108444,33.7777778 C51.8468444,33.7777778 52.4441778,34.3742222 52.4441778,35.1111111 C52.4441778,35.848 51.8468444,36.4444444 51.1108444,36.4444444 M12.8886222,27.5555556 L42.9792889,27.5555556 C43.7152889,27.5555556 44.3126222,28.152 44.3126222,28.8888889 C44.3126222,29.6257778 43.7152889,30.2222222 42.9792889,30.2222222 L12.8886222,30.2222222 C12.1526222,30.2222222 11.5552889,29.6257778 11.5552889,28.8888889 C11.5552889,28.152 12.1526222,27.5555556 12.8886222,27.5555556 M55.1695111,23.1111111 L8.82995556,23.1111111 C7.88062222,23.1111111 7.11084444,23.8808889 7.11084444,24.8302222 L7.11084444,39.1697778 C7.11084444,40.1191111 7.88062222,40.8888889 8.82995556,40.8888889 L55.1695111,40.8888889 C56.1197333,40.8888889 56.8886222,40.1191111 56.8886222,39.1697778 L56.8886222,24.8302222 C56.8886222,23.8808889 56.1197333,23.1111111 55.1695111,23.1111111" id="Fill-4" fill="#C6579A"></path>
        </g>
    </g>
</svg>