<?xml version="1.0" encoding="UTF-8"?>
<svg width="64px" height="64px" viewBox="0 0 64 64" version="1.1" xmlns="http://www.w3.org/2000/svg" xmlns:xlink="http://www.w3.org/1999/xlink">
    <!-- Generator: Sketch 49.3 (51167) - http://www.bohemiancoding.com/sketch -->
    <title>menu/home</title>
    <desc>Created with Sketch.</desc>
    <defs>
        <polygon id="path-1" points="0 0 63.9998222 0 63.9998222 64 0 64"></polygon>
    </defs>
    <g id="menu/home" stroke="none" stroke-width="1" fill="none" fill-rule="evenodd">
        <g id="HOME">
            <g id="Group-3">
                <mask id="mask-2" fill="white">
                    <use xlink:href="#path-1"></use>
                </mask>
                <g id="Clip-2"></g>
                <path d="M31.9998222,0 C49.6727111,0 63.9998222,14.3271111 63.9998222,32 C63.9998222,49.6728889 49.6727111,64 31.9998222,64 C14.3269333,64 -0.000177777778,49.6728889 -0.000177777778,32 C-0.000177777778,14.3271111 14.3269333,0 31.9998222,0" id="Fill-1" fill="#FFFFFF" mask="url(#mask-2)"></path>
            </g>
            <path d="M51.6864,47.2248 C51.8526222,47.2248 51.9886222,47.0896889 51.9886222,46.9225778 L51.9886222,34.0168 C51.9886222,32.7652444 51.5112889,31.5145778 50.5566222,30.5590222 L32.0001778,12.0025778 L13.4437333,30.5590222 C12.4872889,31.5154667 12.0108444,32.7679111 12.0117333,34.0203556 L12.0117333,46.9225778 C12.0117333,47.0896889 12.1468444,47.2248 12.3139556,47.2248 L26.8090667,47.2248 C26.9761778,47.2248 27.1112889,47.0896889 27.1112889,46.9225778 L27.1112889,39.2185778 C27.1112889,36.5181333 29.2997333,34.3296889 32.0001778,34.3296889 C34.7006222,34.3296889 36.8890667,36.5181333 36.8890667,39.2185778 L36.8890667,46.9225778 C36.8890667,47.0896889 37.0241778,47.2248 37.1912889,47.2248 L51.6864,47.2248 Z" id="Fill-4" fill="#C6579A"></path>
        </g>
    </g>
</svg>