<?xml version="1.0" encoding="UTF-8"?>
<svg width="55px" height="64px" viewBox="0 0 55 64" version="1.1" xmlns="http://www.w3.org/2000/svg" xmlns:xlink="http://www.w3.org/1999/xlink">
    <!-- Generator: Sketch 49.3 (51167) - http://www.bohemiancoding.com/sketch -->
    <title>Robbie</title>
    <desc>Created with Sketch.</desc>
    <defs>
        <polygon id="path-1" points="0.000680851064 1.17269787 53.2520851 1.17269787 53.2520851 20.1010383 0.000680851064 20.1010383"></polygon>
    </defs>
    <g id="Robbie" stroke="none" stroke-width="1" fill="none" fill-rule="evenodd">
        <g id="Page-1">
            <path d="M36.5719149,6.70924255 C34.2842553,6.70924255 32.429617,8.56388085 32.429617,10.8529021 C32.429617,13.1419234 34.2842553,14.9965617 36.5719149,14.9965617 C38.8609362,14.9965617 40.7155745,13.1419234 40.7155745,10.8529021 C40.7155745,8.56388085 38.8609362,6.70924255 36.5719149,6.70924255" id="Fill-1" fill="#CA5699"></path>
            <path d="M16.6796255,6.70924255 C14.3906043,6.70924255 12.535966,8.56388085 12.535966,10.8529021 C12.535966,13.1419234 14.3906043,14.9965617 16.6796255,14.9965617 C18.9686468,14.9965617 20.8232851,13.1419234 20.8232851,10.8529021 C20.8232851,8.56388085 18.9686468,6.70924255 16.6796255,6.70924255" id="Fill-3" fill="#CA5699"></path>
            <g id="Group-7" transform="translate(0.000000, 0.189685)">
                <mask id="mask-2" fill="white">
                    <use xlink:href="#path-1"></use>
                </mask>
                <g id="Clip-6"></g>
                <path d="M36.5719149,14.8067404 C34.2842553,14.8067404 32.429617,12.9521021 32.429617,10.6630809 C32.429617,8.37405957 34.2842553,6.51942128 36.5719149,6.51942128 C38.8609362,6.51942128 40.7155745,8.37405957 40.7155745,10.6630809 C40.7155745,12.9521021 38.8609362,14.8067404 36.5719149,14.8067404 M16.6801702,14.8067404 C14.3911489,14.8067404 12.5365106,12.9521021 12.5365106,10.6630809 C12.5365106,8.37405957 14.3911489,6.51942128 16.6801702,6.51942128 C18.9678298,6.51942128 20.8238298,8.37405957 20.8238298,10.6630809 C20.8238298,12.9521021 18.9678298,14.8067404 16.6801702,14.8067404 M45.9540426,2.47925106 L28.2069787,1.22784681 C27.154383,1.15431489 26.0990638,1.15431489 25.0451064,1.22784681 L7.29940426,2.47925106 C3.26740426,2.47925106 0.000680851064,5.74733617 0.000680851064,9.77797447 C0.000680851064,13.8099745 3.25787234,16.427166 7.29940426,17.0766979 L24.9688511,19.9662298 C26.066383,20.1459745 27.1843404,20.1459745 28.2818723,19.9662298 L45.9540426,17.0766979 C49.3828085,16.7580596 53.252766,13.8099745 53.252766,9.77797447 C53.252766,5.74733617 49.9846809,2.47925106 45.9540426,2.47925106" id="Fill-5" fill="#FFFFFF" mask="url(#mask-2)"></path>
            </g>
            <path d="M38.3020936,24.7690894 L14.9502638,24.7690894 C6.26124255,24.7690894 1.26515745,34.6550468 6.4205617,41.6501106 L19.2927319,59.1234723 C22.9339234,64.062366 30.3197957,64.062366 33.9596255,59.1234723 L46.8331574,41.6501106 C51.9872,34.6550468 46.9924766,24.7690894 38.3020936,24.7690894" id="Fill-8" fill="#FFFFFF"></path>
        </g>
    </g>
</svg>