<?xml version="1.0" encoding="UTF-8"?>
<svg width="42px" height="64px" viewBox="0 0 42 64" version="1.1" xmlns="http://www.w3.org/2000/svg" xmlns:xlink="http://www.w3.org/1999/xlink">
    <!-- Generator: Sketch 49.3 (51167) - http://www.bohemiancoding.com/sketch -->
    <title>flagpole</title>
    <desc>Created with Sketch.</desc>
    <defs></defs>
    <g id="flagpole" stroke="none" stroke-width="1" fill="none" fill-rule="evenodd">
        <path d="M15.4191448,22.3435034 L39.0249931,22.3435034 L39.0249931,9.5894069 L15.4191448,9.5894069 L15.4191448,22.3435034 Z M39.7029517,6.94024828 L15.4191448,6.94024828 L15.4191448,5.21533793 C16.3769379,4.79337931 17.0478345,3.83823448 17.0478345,2.7241931 C17.0478345,1.21997241 15.8278621,0 14.3236414,0 C12.8185379,0 11.5985655,1.21997241 11.5985655,2.7241931 C11.5985655,3.65108966 12.0637793,4.46764138 12.770869,4.95933793 L12.770869,49.0266483 C5.40424828,49.360331 0,52.457931 0,56.4965517 C0,60.7744 6.05925517,64 14.0950069,64 C22.1298759,64 28.1900138,60.7744 28.1900138,56.4965517 C28.1900138,53.5552 25.321931,51.0446345 20.5188414,49.7822897 C19.8099862,49.5951448 19.0870069,50.0197517 18.9007448,50.7259586 C18.7153655,51.433931 19.1382069,52.1577931 19.8444138,52.3431724 C23.2527448,53.2391724 25.5417379,54.908469 25.5417379,56.4965517 C25.5417379,58.7934897 20.8401655,61.3517241 14.0950069,61.3517241 C7.34896552,61.3517241 2.64827586,58.7934897 2.64827586,56.4965517 C2.64827586,54.3532138 6.7433931,51.9847724 12.770869,51.6766897 L12.770869,57.8206897 C12.770869,58.5524966 13.3640828,59.1448276 14.0950069,59.1448276 C14.825931,59.1448276 15.4191448,58.5524966 15.4191448,57.8206897 L15.4191448,24.9917793 L39.7029517,24.9917793 C40.7896276,24.9917793 41.673269,24.1072552 41.673269,23.0205793 L41.673269,8.91056552 C41.673269,7.82477241 40.7896276,6.94024828 39.7029517,6.94024828 Z" id="Page-1" stroke="#979797" fill="#979797"></path>
    </g>
</svg>