<?xml version="1.0" encoding="UTF-8"?>
<svg width="64px" height="64px" viewBox="0 0 64 64" version="1.1" xmlns="http://www.w3.org/2000/svg" xmlns:xlink="http://www.w3.org/1999/xlink">
    <!-- Generator: Sketch 49.3 (51167) - http://www.bohemiancoding.com/sketch -->
    <title>nav/more</title>
    <desc>Created with Sketch.</desc>
    <defs>
        <polygon id="path-1" points="0 8.88888889e-05 63.9998222 8.88888889e-05 63.9998222 64 0 64"></polygon>
    </defs>
    <g id="nav/more" stroke="none" stroke-width="1" fill="none" fill-rule="evenodd">
        <g id="Page-1">
            <g id="Group-3">
                <mask id="mask-2" fill="white">
                    <use xlink:href="#path-1"></use>
                </mask>
                <g id="Clip-2"></g>
                <path d="M31.9998222,64.0000889 C14.3269333,64.0000889 -0.000177777778,49.6729778 -0.000177777778,32.0000889 C-0.000177777778,14.3272 14.3269333,8.88888889e-05 31.9998222,8.88888889e-05 C49.6736,8.88888889e-05 63.9998222,14.3272 63.9998222,32.0000889 C63.9998222,49.6729778 49.6736,64.0000889 31.9998222,64.0000889 Z" id="Fill-1" fill="#FFFFFF" mask="url(#mask-2)"></path>
            </g>
            <path d="M12.0796444,32.0000889 C12.0796444,34.7005333 14.2689778,36.8889778 16.9685333,36.8889778 C19.6680889,36.8889778 21.8574222,34.7005333 21.8574222,32.0000889 C21.8574222,29.2996444 19.6680889,27.1112 16.9685333,27.1112 C14.2689778,27.1112 12.0796444,29.2996444 12.0796444,32.0000889" id="Fill-4" fill="#C6579A"></path>
            <path d="M27.1109333,32.0000889 C27.1109333,34.7005333 29.3002667,36.8889778 31.9998222,36.8889778 C34.7002667,36.8889778 36.8887111,34.7005333 36.8887111,32.0000889 C36.8887111,29.2996444 34.7002667,27.1112 31.9998222,27.1112 C29.3002667,27.1112 27.1109333,29.2996444 27.1109333,32.0000889" id="Fill-6" fill="#C6579A"></path>
            <path d="M42.1421333,32.0000889 C42.1421333,34.7005333 44.3314667,36.8889778 47.0310222,36.8889778 C49.7314667,36.8889778 51.9199111,34.7005333 51.9199111,32.0000889 C51.9199111,29.2996444 49.7314667,27.1112 47.0310222,27.1112 C44.3314667,27.1112 42.1421333,29.2996444 42.1421333,32.0000889" id="Fill-8" fill="#C6579A"></path>
        </g>
    </g>
</svg>